<?xml version="1.0" encoding="UTF-8"?><svg id="Layer_2" xmlns="http://www.w3.org/2000/svg" viewBox="0 0 1742.84 452.32"><defs><style>.cls-1{fill:#fff;font-family:Quasimoda-Bold, Quasimoda;font-size:350px;}.cls-2{fill:#ff0f71;}.cls-3{letter-spacing:-.03em;}.cls-4{fill:none;stroke:#7ff6ff;stroke-miterlimit:10;stroke-width:22.06px;}.cls-5{letter-spacing:0em;}.cls-6{letter-spacing:-.12em;}</style></defs><g id="Layer_1-2"><g><text class="cls-1" transform="translate(50.15 354.43)"><tspan class="cls-5" x="0" y="0">Whe</tspan><tspan class="cls-3" x="732.55" y="0">r</tspan><tspan class="cls-5" x="878.85" y="0">e</tspan><tspan class="cls-6" x="1069.95" y="0">T</tspan><tspan class="cls-5" x="1245.65" y="0">o</tspan></text><g><ellipse class="cls-4" cx="1669.95" cy="283.42" rx="55.48" ry="55.37" transform="translate(1331.74 1943.14) rotate(-88.11)"/><path class="cls-2" d="M1707.11,147.67c-10.53,5.51-21.86,7.91-32.94,7.54l.72-21.89c.11,0,.22,0,.32,.01,24.68,.81,45.34-18.53,46.15-43.21,.81-24.68-18.53-45.34-43.21-46.16-24.68-.81-45.34,18.53-46.16,43.22l-22.08-.73c.79-23.21,13.68-45.33,35.69-56.85,32.54-17.02,72.69-4.39,89.67,28.22,16.98,32.6,4.37,72.83-28.17,89.85Z"/><path class="cls-2" d="M1628.15,198.11c-.03,.84-.03,1.69-.01,2.52l-20.38,12.62c-6.24-28.34,7.05-58.41,34.25-72.47,10.55-5.45,21.9-7.83,33-7.45l-.72,21.91c-24.68-.81-45.34,18.38-46.15,42.87Z"/></g></g></g></svg>